<?xml version="1.0" encoding="utf-8"?>
<!-- Generator: Adobe Illustrator 21.0.0, SVG Export Plug-In . SVG Version: 6.00 Build 0)  -->
<svg version="1.1" id="Слой_1" xmlns="http://www.w3.org/2000/svg" xmlns:xlink="http://www.w3.org/1999/xlink" x="0px" y="0px"
	 viewBox="0 0 512 512" style="enable-background:new 0 0 512 512;" xml:space="preserve">
<style type="text/css">
	.st0{fill:#D8D8D8;}
</style>
<g>
	<path class="st0" d="M317.5,105.6c-7-2.7-14.2-4.9-21.5-6.7l-0.5,9.7c4.6,1.2,9.2,2.6,13.7,4.1L317.5,105.6z"/>
	<path class="st0" d="M250.2,103.2l9.9-9.4c-2.4-0.1-4.9-0.2-7.3-0.2c-6.2,0-12.4,0.3-18.5,0.9l4.8,9.1
		C242.7,103.4,246.5,103.3,250.2,103.2z"/>
	<path class="st0" d="M186,116.7l-0.8-10c-2.9,1.2-5.8,2.4-8.6,3.7l6.3,7.7C183.9,117.6,185,117.1,186,116.7z"/>
	<polygon class="st0" points="155.4,370.2 152.6,370.2 149.5,382 146.6,370.2 142.7,370.2 147.4,386.6 151.1,386.6 154,375.3 
		156.9,386.6 160.6,386.6 165.3,370.2 161.3,370.2 158.5,382 	"/>
	<polygon class="st0" points="178.5,373.2 178.5,370.2 166.9,370.2 166.9,386.6 178.5,386.6 178.5,383.5 170.4,383.5 170.4,379.8 
		178.4,379.8 178.4,376.7 170.4,376.7 170.4,373.2 	"/>
	<path class="st0" d="M194.7,374.4c0-2.2-1.6-4.2-4.7-4.2h-8.6v16.4h8.9c3.1,0,4.8-2,4.8-4.4c0-2.1-1.4-3.8-3.2-4
		C193.4,377.8,194.7,376.4,194.7,374.4z M184.8,373.2h4.4c1.2,0,1.9,0.8,1.9,1.8s-0.7,1.8-1.9,1.8h-4.4V373.2z M189.3,383.6h-4.5
		v-3.8h4.5c1.4,0,2.1,0.9,2.1,1.9C191.4,382.9,190.6,383.6,189.3,383.6z"/>
	<path class="st0" d="M203.9,370.2v16.4h3.5v-5.8h4.2c3.5,0,5.5-2.4,5.5-5.3s-1.9-5.3-5.5-5.3L203.9,370.2L203.9,370.2z
		 M213.5,375.5c0,1.4-1,2.2-2.4,2.2h-3.7v-4.4h3.7C212.5,373.2,213.5,374.1,213.5,375.5z"/>
	<path class="st0" d="M232.5,375.5c0-3.1-2.1-5.3-5.5-5.3h-7.7v16.4h3.5v-5.8h2.6l3.2,5.8h4l-3.7-6.3
		C230.7,379.9,232.5,378.4,232.5,375.5z M226.5,377.7h-3.7v-4.4h3.7c1.4,0,2.5,0.8,2.5,2.2C228.9,376.8,227.9,377.7,226.5,377.7z"/>
	<path class="st0" d="M234.3,378.4c0,5,3.6,8.5,8.6,8.5s8.6-3.5,8.6-8.5s-3.6-8.5-8.6-8.5C238,369.9,234.3,373.4,234.3,378.4z
		 M247.9,378.4c0,3.1-2,5.4-5,5.4s-5-2.3-5-5.4s1.9-5.4,5-5.4C245.9,373,247.9,375.3,247.9,378.4z"/>
	<path class="st0" d="M254,370.2v16.4h6.5c5.1,0,8.7-3.3,8.7-8.2s-3.6-8.2-8.7-8.2L254,370.2L254,370.2z M265.6,378.4
		c0,2.8-1.9,5.1-5.1,5.1h-3v-10.3h3C263.8,373.2,265.6,375.5,265.6,378.4z"/>
	<path class="st0" d="M271.7,370.2v9.9c0,4,2.4,6.8,7.4,6.8s7.4-2.8,7.4-6.9v-9.9h-3.6v9.8c0,2.3-1.3,3.9-3.8,3.9s-3.9-1.6-3.9-3.9
		v-9.8h-3.5V370.2z"/>
	<path class="st0" d="M297.7,373c1.7,0,3.2,1.1,3.9,2.4l3-1.5c-1.2-2-3.3-4-6.9-4c-4.9,0-8.7,3.4-8.7,8.5c0,5,3.8,8.5,8.7,8.5
		c3.6,0,5.7-2,6.9-4l-3-1.5c-0.7,1.4-2.2,2.4-3.9,2.4c-3,0-5.1-2.3-5.1-5.4S294.7,373,297.7,373z"/>
	<polygon class="st0" points="313.9,386.6 313.9,373.2 318.7,373.2 318.7,370.2 305.6,370.2 305.6,373.2 310.4,373.2 310.4,386.6 	
		"/>
	<rect x="321" y="370.2" class="st0" width="3.5" height="16.4"/>
	<path class="st0" d="M326.9,378.4c0,5,3.6,8.5,8.6,8.5s8.6-3.5,8.6-8.5s-3.6-8.5-8.6-8.5S326.9,373.4,326.9,378.4z M340.5,378.4
		c0,3.1-2,5.4-5,5.4s-5-2.3-5-5.4s1.9-5.4,5-5.4C338.5,373,340.5,375.3,340.5,378.4z"/>
	<polygon class="st0" points="350.2,370.2 346.6,370.2 346.6,386.6 350.1,386.6 350.1,375.9 357.9,386.6 361.3,386.6 361.3,370.2 
		357.8,370.2 357.8,380.5 	"/>
	<path class="st0" d="M110.6,162.5c-10.6,13.3-19.2,28-25.5,43.5l10.1,0.8c5.5-12.7,12.5-24.6,20.8-35.5L110.6,162.5z"/>
	<path class="st0" d="M161.8,129.3v-11.2c-9.7,5.7-18.9,12.2-27.6,19.7l8.9,5C149.1,137.9,155.3,133.4,161.8,129.3z"/>
	<path class="st0" d="M360.7,141.4c13.2,10.7,24.8,23.3,34.4,37.4l9-3.8c-6.7-10-14.4-19.5-23.1-28.2c-5.7-5.7-11.7-10.9-18-15.8
		L360.7,141.4z"/>
	<polygon class="st0" points="155.5,250.7 129,232 181.1,236.1 139,166.3 184.3,191.8 184.3,155.2 215,192.7 206.3,89.7 236.5,147 
		272.8,112.8 269.5,175.8 344.1,112.5 318.7,226.5 286.8,240.1 299.5,183 265.8,211.7 267.3,184.5 247.6,203.1 226,162.2 
		230.4,214.1 219.1,200.2 219.1,221.2 190.6,205.2 213.2,242.7 182.4,240.2 197.3,250.7 299,250.7 317.8,230.3 316.4,236.8 
		371.4,213.3 336.8,250.7 356.6,250.7 428.5,173.1 336.7,212.3 367.7,73.3 285.8,142.9 289.2,77.2 240.5,123.3 185.7,19.5 
		196.5,147.2 169.7,114.5 169.7,166.9 98.2,126.5 154,219.4 77.1,213.3 130.2,250.7 	"/>
	<path class="st0" d="M87,230l-8.3-5.8c-2.5,8.6-4.4,17.5-5.6,26.5h9.6C83.8,243.6,85.2,236.7,87,230z"/>
	<path class="st0" d="M252.8,446.7c-66,0-123.4-37.4-152.2-92.2H89.9c8.7,17.8,20.4,34.2,34.8,48.6c34.2,34.2,79.7,53.1,128.1,53.1
		s93.9-18.8,128.1-53.1c14.4-14.4,26.1-30.8,34.8-48.6H405C376.2,409.2,318.8,446.7,252.8,446.7z"/>
	<path class="st0" d="M409.7,205.1c6.4,14.3,10.9,29.6,13.1,45.6h9.6c-2.5-18.6-7.8-36.5-15.7-53.2L409.7,205.1z"/>
	<polygon class="st0" points="503.3,293 455.6,293 455.6,345.8 455.6,354.5 446.9,354.5 426,354.5 426,377.4 503.3,377.4 
		475.6,333.1 	"/>
	<polygon class="st0" points="50,354.5 50,345.8 50,293 3.3,293 30.9,333.1 3.3,377.4 80.5,377.4 80.5,354.5 58.7,354.5 	"/>
	<path class="st0" d="M346.9,292.3H341v20.5h5.9c6.5,0,10.3-4.7,10.3-10.2C357.1,296.8,353.6,292.3,346.9,292.3z"/>
	<path class="st0" d="M106.2,305.2h-9v7.6h9c2.6,0,4.2-1.4,4.2-3.8C110.4,307,109,305.2,106.2,305.2z"/>
	<polygon class="st0" points="131.2,307.2 141.5,307.2 136.4,293.1 	"/>
	<path class="st0" d="M398.2,291.8c-6,0-9.9,4.6-9.9,10.7s3.9,10.7,9.9,10.7s10-4.7,10-10.7C408.1,296.4,404.2,291.8,398.2,291.8z"
		/>
	<path class="st0" d="M109.8,295.7c0-2.1-1.5-3.6-3.8-3.6h-8.7v7.1h8.7C108.3,299.3,109.8,297.8,109.8,295.7z"/>
	<path class="st0" d="M446.9,259.4H58.7v86.4H447v-86.4H446.9z M108,318.9H90.3v-32.7h17.2c6.2,0,9.4,4,9.4,8.3
		c0,4.1-2.6,6.9-5.6,7.5c3.5,0.5,6.3,3.9,6.3,8C117.6,315,114.3,318.9,108,318.9z M145.4,318.9l-2-5.5h-14l-2.1,5.5h-7.9l12.7-32.7
		h8.7l12.6,32.7H145.4z M185.7,318.9H179l-15.6-21.3v21.3h-7v-32.7h7.2l15.2,20.6v-20.6h7L185.7,318.9L185.7,318.9z M221.9,313.3
		c-3.3,3.7-8,6.2-13.9,6.2c-9.6,0-17.4-6.7-17.4-17c0-10.4,7.8-16.9,17.4-16.9c6.8,0,11.1,3.4,13.5,7.3l-5.8,3.1
		c-1.5-2.3-4.3-4.3-7.8-4.3c-5.9,0-10.3,4.6-10.3,10.7c0,6.2,4.3,10.7,10.3,10.7c2.9,0,5.6-1.3,7-2.5v-3.9h-8.6v-6.1h15.6V313.3z
		 M251.7,319.5c-6.3,0-10.8-2.1-13.8-5.2l3.8-5.3c2.3,2.4,5.9,4.4,10.4,4.4c3.8,0,5.7-1.8,5.7-3.6c0-5.8-18.8-1.8-18.8-14.1
		c0-5.4,4.7-10,12.4-10c5.2,0,9.5,1.6,12.8,4.6l-3.9,5.1c-2.6-2.5-6.2-3.6-9.5-3.6c-3,0-4.7,1.3-4.7,3.3c0,5.2,18.8,1.7,18.8,13.9
		C264.8,315,260.5,319.5,251.7,319.5z M293.6,292.3H284v26.6h-7v-26.6h-9.6v-6.1h26.1v6.1H293.6z M327.6,305.8
		c0,8.1-4.8,13.7-14.8,13.7s-14.8-5.6-14.8-13.6v-19.7h7.1v19.4c0,4.6,2.6,7.7,7.7,7.7s7.7-3.1,7.7-7.7v-19.4h7.1L327.6,305.8
		L327.6,305.8z M346.9,318.9H334v-32.7h12.9c10.3,0,17.4,6.5,17.4,16.4C364.3,312.4,357.1,318.9,346.9,318.9z M376.2,318.9h-7v-32.7
		h7V318.9z M398.2,319.5c-9.9,0-17.1-7.1-17.1-16.9c0-9.9,7.2-16.9,17.1-16.9s17.1,7.1,17.1,16.9
		C415.3,312.4,408.1,319.5,398.2,319.5z"/>
</g>
</svg>
