<?xml version="1.0" encoding="utf-8"?>
<!-- Generator: Adobe Illustrator 21.0.0, SVG Export Plug-In . SVG Version: 6.00 Build 0)  -->
<svg version="1.1" id="Слой_1" xmlns="http://www.w3.org/2000/svg" xmlns:xlink="http://www.w3.org/1999/xlink" x="0px" y="0px"
	 viewBox="0 0 806.1 169.3" style="enable-background:new 0 0 806.1 169.3;" xml:space="preserve">
<style type="text/css">
	.st0{fill:#FFFFFF;}
</style>
<g>
	<polygon class="st0" points="379,78.9 393,78.9 393,56.8 388.2,56.8 388.2,14.9 374.3,14.9 374.3,56.8 351.8,56.8 351.8,14.9 
		337.9,14.9 337.9,68.9 379,68.9 	"/>
	<polygon class="st0" points="438.6,56.8 413,56.8 413,47.6 438,47.6 438,35.5 413,35.5 413,27.1 438.6,27.1 438.6,14.9 399,14.9 
		399,68.9 438.6,68.9 	"/>
	<polygon class="st0" points="508,68.9 508,14.9 488.6,14.9 477.3,44.2 466.1,14.9 446.7,14.9 446.7,68.9 460.6,68.9 460.6,33.8 
		474.2,68.9 480.4,68.9 494.1,33.8 494.1,68.9 	"/>
	<polygon class="st0" points="557.3,56.8 531.6,56.8 531.6,47.6 556.7,47.6 556.7,35.5 531.6,35.5 531.6,27.1 557.3,27.1 
		557.3,14.9 517.7,14.9 517.7,68.9 557.3,68.9 	"/>
	<polygon class="st0" points="601.7,35.1 579.3,35.1 579.3,14.9 565.4,14.9 565.4,68.9 579.3,68.9 579.3,47.2 601.7,47.2 
		601.7,68.9 615.6,68.9 615.6,14.9 601.7,14.9 	"/>
	<polygon class="st0" points="637.4,68.9 651.3,68.9 651.3,27.1 666.4,27.1 666.4,14.9 622.3,14.9 622.3,27.1 637.4,27.1 	"/>
	<rect x="670.6" y="44.1" class="st0" width="19.4" height="10.4"/>
	<polygon class="st0" points="711.2,47.2 733.7,47.2 733.7,68.9 747.6,68.9 747.6,14.9 733.7,14.9 733.7,35.1 711.2,35.1 
		711.2,14.9 697.3,14.9 697.3,68.9 711.2,68.9 	"/>
	<polygon class="st0" points="784,40.2 805,14.9 787.8,14.9 771.2,37.1 771.2,14.9 757.3,14.9 757.3,68.9 771.2,68.9 771.2,53.1 
		774.9,48.6 789,68.9 806.1,68.9 	"/>
	<path class="st0" d="M94.3,116.2h1.1h28.3c0-0.5-0.1-1.1-0.1-1.7c0-12,9.7-21.7,21.7-21.7s21.7,9.7,21.7,21.7c0,0.6,0,1.1-0.1,1.7
		h57.8c0-0.5-0.1-1.1-0.1-1.7c0-12,9.7-21.7,21.7-21.7c12,0,21.7,9.7,21.7,21.7c0,0.6,0,1.1-0.1,1.7h14.4c0.4,0,0.7-0.3,0.7-0.7v-25
		c0-0.4-0.3-0.7-0.7-0.7H162.6V42c0-0.4-0.3-0.7-0.7-0.7h-33.2c-0.2,0-0.4,0.1-0.5,0.3L94.8,84.3c-0.1,0.1-0.1,0.3-0.1,0.4v17.2
		h-0.4c-1.5,0-2.8,1.3-2.8,2.8v8.8C91.6,115,92.8,116.2,94.3,116.2z M109.5,77.8L109.5,77.8c0-0.3,0.1-0.6,0.3-0.9L131.2,51
		c0.3-0.3,0.7-0.5,1.1-0.5h19.3c0.8,0,1.4,0.6,1.4,1.4v30c0,0.8-0.6,1.4-1.4,1.4h-40.7c-0.8,0-1.4-0.6-1.4-1.4V77.8z"/>
	<path class="st0" d="M182.6,76.9c0.1,0.3,0.3,0.4,0.6,0.5l45.7,7.7h0.1c0.2,0,0.3-0.1,0.4-0.1l53.7-42.3c0.2-0.2,0.3-0.4,0.2-0.7
		l-7.7-32.1c-0.1-0.3-0.3-0.5-0.6-0.5L207.7,0c-0.2,0-0.4,0-0.5,0.1l-38.3,29c-0.2,0.2-0.3,0.5-0.2,0.7L182.6,76.9z"/>
	<path class="st0" d="M395.3,168.2c-30.1-15.7-62.5-26.9-95.8-34.4c-13.4-3-26.9-5.4-40.5-7.2c3-3.1,4.8-7.4,4.8-12
		c0-9.7-7.9-17.5-17.5-17.5c-9.7,0-17.5,7.9-17.5,17.5c0,3.4,1,6.5,2.6,9.2c-11.2-0.8-22.4-1.2-33.7-1.3c-4.3,0-8.6,0.2-12.8,0.2
		c-4.3,0.1-8.5,0.3-12.8,0.5c-4,0.2-8.1,0.5-12.1,0.8c1.8-2.7,2.8-6,2.8-9.5c0-9.7-7.9-17.5-17.5-17.5c-9.7,0-17.5,7.9-17.5,17.5
		c0,4.9,2,9.3,5.3,12.5l-11.9,1.8c-4.2,0.7-8.4,1.5-12.6,2.2c-4.2,0.8-8.3,1.8-12.5,2.7c-33.3,7.5-65.7,18.7-95.7,34.4H0.3
		c-0.3,0.1-0.4,0.5-0.3,0.8c0.1,0.3,0.5,0.5,0.8,0.4c15.8-5.6,31.8-10.7,48-14.9c16.2-4.3,32.6-7.9,49.1-10.8
		c33-5.9,66.5-8.6,100-8.6s67,2.8,100,8.6s65.5,14.5,97,25.7c0.3,0.1,0.6,0,0.8-0.3C395.7,168.8,395.6,168.4,395.3,168.2z"/>
	<path class="st0" d="M356.5,108.8c0-4.4-3.1-8.2-8.4-8.2H340v-9.4h15V89h-17.4v27.9h10.5C353.4,116.9,356.5,113.2,356.5,108.8z
		 M340,114.7v-12h7.8c3.7,0,6.2,2.5,6.2,6s-2.5,6-6.2,6H340z"/>
	<path class="st0" d="M379.7,106.9h-0.1c0-5.8-3.4-10.7-9.5-10.7c-5.6,0-9.7,4.7-9.7,10.6c0,6.2,4.2,10.6,10.1,10.6
		c3.3,0,5.9-1.2,7.9-3.3l-1.1-1.4c-1.7,1.8-4.1,2.8-6.6,2.8c-4.8,0-7.7-3.6-7.9-8h16.9V106.9z M362.7,105.8c0.2-3.5,2.6-7.7,7.3-7.7
		c5.1,0,7.3,4.3,7.4,7.7H362.7z"/>
	<polygon class="st0" points="382.9,98.6 388.8,98.6 388.8,116.9 391,116.9 391,98.6 397,98.6 397,96.7 382.9,96.7 	"/>
	<path class="st0" d="M410.1,96.2c-5.9,0-9.7,4.7-9.7,10.6s3.8,10.6,9.7,10.6c6,0,9.7-4.7,9.7-10.6S416,96.2,410.1,96.2z
		 M410.1,115.5c-4.7,0-7.4-4.1-7.4-8.7c0-4.5,2.7-8.6,7.4-8.6c4.8,0,7.4,4.1,7.4,8.6S414.8,115.5,410.1,115.5z"/>
	<polygon class="st0" points="439.1,105.5 427.6,105.5 427.6,96.7 425.4,96.7 425.4,116.9 427.6,116.9 427.6,107.4 439.1,107.4 
		439.1,116.9 441.2,116.9 441.2,96.7 439.1,96.7 	"/>
	<path class="st0" d="M449.2,113.7c-1,0-1.8,0.8-1.8,1.8s0.8,1.9,1.8,1.9s1.9-0.9,1.9-1.9C451.1,114.5,450.2,113.7,449.2,113.7z"/>
	<polygon class="st0" points="490.6,89 488.2,89 488.2,114.7 470.5,114.7 470.5,89 468.1,89 468.1,116.9 490.7,116.9 490.7,122.1 
		493.1,122.1 493.1,114.7 490.6,114.7 	"/>
	<path class="st0" d="M506.6,96.2c-5.6,0-9.7,4.7-9.7,10.6c0,6.2,4.2,10.6,10.1,10.6c3.3,0,5.9-1.2,7.9-3.3l-1.1-1.4
		c-1.7,1.8-4.1,2.8-6.6,2.8c-4.8,0-7.7-3.6-7.9-8h16.9v-0.6C516.1,101.1,512.8,96.2,506.6,96.2z M499.2,105.8
		c0.2-3.5,2.6-7.7,7.3-7.7c5.1,0,7.3,4.3,7.4,7.7H499.2z"/>
	<polygon class="st0" points="531.3,113.1 524.7,96.7 521.8,96.7 521.8,116.9 523.9,116.9 523.9,99.7 530.9,116.9 531.7,116.9 
		538.6,99.7 538.6,116.9 540.8,116.9 540.8,96.7 537.8,96.7 	"/>
	<path class="st0" d="M556.2,96.2c-5.6,0-9.7,4.7-9.7,10.6c0,6.2,4.2,10.6,10.1,10.6c3.3,0,5.9-1.2,7.9-3.3l-1.1-1.4
		c-1.7,1.8-4.1,2.8-6.6,2.8c-4.8,0-7.7-3.6-7.9-8h16.9v-0.6C565.7,101.1,562.3,96.2,556.2,96.2z M548.8,105.8
		c0.2-3.5,2.6-7.7,7.3-7.7c5.1,0,7.3,4.3,7.4,7.7H548.8z"/>
	<polygon class="st0" points="585,105.5 573.5,105.5 573.5,96.7 571.3,96.7 571.3,116.9 573.5,116.9 573.5,107.4 585,107.4 
		585,116.9 587.2,116.9 587.2,96.7 585,96.7 	"/>
	<polygon class="st0" points="591.7,98.6 597.6,98.6 597.6,116.9 599.8,116.9 599.8,98.6 605.8,98.6 605.8,96.7 591.7,96.7 	"/>
	<path class="st0" d="M611.5,113.7c-1,0-1.8,0.8-1.8,1.8s0.8,1.9,1.8,1.9s1.9-0.9,1.9-1.9S612.5,113.7,611.5,113.7z"/>
	<path class="st0" d="M643.5,90.7c3.3,0,6.4,1.6,8.2,4.1l2-1.3c-2.4-3-5.7-4.9-10.2-4.9c-7.9,0-14.1,5.9-14.1,14.4
		s6.2,14.4,14.1,14.4c4.4,0,7.7-1.9,10.2-5l-2-1.3c-1.8,2.4-4.8,4.1-8.2,4.1c-6.6,0-11.6-5.1-11.6-12.3
		C631.8,95.7,636.9,90.7,643.5,90.7z"/>
	<polygon class="st0" points="656.2,98.6 662.1,98.6 662.1,116.9 664.3,116.9 664.3,98.6 670.3,98.6 670.3,96.7 656.2,96.7 	"/>
	<path class="st0" d="M684,96.2c-3,0-5.6,1.6-7,3.7v-3.2h-2.2v27.9h2.2v-11c1.6,2.3,4.2,3.8,7,3.8c5.4,0,9-4.2,9-10.6
		C693,100.3,689.4,96.2,684,96.2z M683.6,115.5c-2.8,0-5.5-1.8-6.7-3.7v-10c1.2-1.9,3.8-3.6,6.7-3.6c4.5,0,7.1,3.7,7.1,8.6
		S688.1,115.5,683.6,115.5z"/>
	<path class="st0" d="M707,96.2c-5.9,0-9.7,4.7-9.7,10.6s3.8,10.6,9.7,10.6c6,0,9.7-4.7,9.7-10.6S713,96.2,707,96.2z M707,115.5
		c-4.7,0-7.4-4.1-7.4-8.7c0-4.5,2.7-8.6,7.4-8.6c4.8,0,7.4,4.1,7.4,8.6S711.8,115.5,707,115.5z"/>
	<polygon class="st0" points="724.6,113.5 724.6,96.7 722.4,96.7 722.4,116.9 724.5,116.9 736,99.8 736,116.9 738.2,116.9 
		738.2,96.7 736.1,96.7 	"/>
	<path class="st0" d="M730.3,92.7c-2.6,0-4.8-1.2-6.2-3.1l-1.2,1c1.7,2.3,4.4,3.7,7.4,3.7s5.6-1.4,7.3-3.7l-1.2-1
		C735,91.5,732.9,92.7,730.3,92.7z"/>
	<polygon class="st0" points="754.5,113.1 747.9,96.7 745,96.7 745,116.9 747.2,116.9 747.2,99.7 754.2,116.9 755,116.9 761.9,99.7 
		761.9,116.9 764.1,116.9 764.1,96.7 761.1,96.7 	"/>
	<path class="st0" d="M778.5,96.2c-3.3,0-5.7,1.1-7.8,3.4l1.2,1.5c1.8-2.1,3.8-3,6.3-3c3,0,5.4,1.6,5.4,4.6v4.1
		c-1.8-2-4.1-2.9-6.9-2.9c-3.5,0-7.1,2.3-7.1,6.7s3.6,6.7,7.1,6.7c2.8,0,5.1-0.9,6.9-2.9v2.4h2.2v-14.2
		C785.9,98.2,782.6,96.2,778.5,96.2z M783.7,112.9c-1.4,1.8-3.7,2.8-6.1,2.8c-3.3,0-5.5-2.1-5.5-5s2.2-5,5.5-5c2.4,0,4.7,1,6.1,2.8
		V112.9z"/>
	<polygon class="st0" points="790.4,98.6 796.3,98.6 796.3,116.9 798.5,116.9 798.5,98.6 804.5,98.6 804.5,96.7 790.4,96.7 	"/>
</g>
</svg>
