<?xml version="1.0" encoding="utf-8"?>
<!-- Generator: Adobe Illustrator 21.0.0, SVG Export Plug-In . SVG Version: 6.00 Build 0)  -->
<svg version="1.1" id="Слой_1" xmlns="http://www.w3.org/2000/svg" xmlns:xlink="http://www.w3.org/1999/xlink" x="0px" y="0px"
	 viewBox="0 0 806.1 169.3" style="enable-background:new 0 0 806.1 169.3;" xml:space="preserve">
<style type="text/css">
	.st0{fill:#B2B2B2;}
</style>
<path class="st0" d="M379,68.9h-41.1v-54h13.9v41.9h22.5V14.9h13.9v41.9h4.8v22.1h-14V68.9z M438.6,56.8H413v-9.2h25V35.5h-25v-8.4
	h25.6V14.9H399v54h39.6V56.8z M508,68.9v-54h-19.4l-11.3,29.3l-11.2-29.3h-19.4v54h13.9V33.8l13.6,35.1h6.2l13.7-35.1v35.1H508z
	 M557.3,56.8h-25.7v-9.2h25.1V35.5h-25.1v-8.4h25.7V14.9h-39.6v54h39.6V56.8z M601.7,35.1h-22.4V14.9h-13.9v54h13.9V47.2h22.4v21.7
	h13.9v-54h-13.9V35.1z M637.4,68.9h13.9V27.1h15.1V14.9h-44.1v12.2h15.1V68.9z M690,44.1h-19.4v10.4H690V44.1z M711.2,47.2h22.5
	v21.7h13.9v-54h-13.9v20.2h-22.5V14.9h-13.9v54h13.9V47.2z M784,40.2l21-25.3h-17.2l-16.6,22.2V14.9h-13.9v54h13.9V53.1l3.7-4.5
	L789,68.9h17.1L784,40.2z M91.5,113.5v-8.8c0-1.5,1.3-2.8,2.8-2.8h0.4V84.7c0-0.1,0-0.3,0.1-0.4l33.4-42.7c0.1-0.2,0.3-0.3,0.5-0.3
	h33.2c0.4,0,0.7,0.3,0.7,0.7v47.8h119.7c0.4,0,0.7,0.3,0.7,0.7v25c0,0.4-0.3,0.7-0.7,0.7h-14.4c0.1-0.6,0.1-1.1,0.1-1.7
	c0-12-9.7-21.7-21.7-21.7s-21.7,9.7-21.7,21.7c0,0.6,0.1,1.2,0.1,1.7h-57.8c0.1-0.6,0.1-1.1,0.1-1.7c0-12-9.7-21.7-21.7-21.7
	s-21.7,9.7-21.7,21.7c0,0.6,0.1,1.2,0.1,1.7H95.4h-1.1C92.8,116.2,91.6,115,91.5,113.5z M109.5,81.9c0,0.8,0.6,1.4,1.4,1.4h40.7
	c0.8,0,1.4-0.6,1.4-1.4v-30c0-0.8-0.6-1.4-1.4-1.4h-19.3c-0.4,0-0.8,0.2-1.1,0.5l-21.4,25.9c-0.2,0.3-0.3,0.6-0.3,0.9V81.9z
	 M182.6,76.9c0.1,0.3,0.3,0.4,0.6,0.5l45.7,7.7h0.1c0.2,0,0.3-0.1,0.4-0.1l53.7-42.3c0.2-0.2,0.3-0.4,0.2-0.7l-7.7-32.1
	c-0.1-0.3-0.3-0.5-0.6-0.5L207.7,0c-0.2,0-0.4,0-0.5,0.1l-38.3,29c-0.2,0.2-0.3,0.5-0.2,0.7L182.6,76.9z M395.3,168.2
	c-30.1-15.7-62.5-26.9-95.8-34.4c-13.4-3-26.9-5.4-40.5-7.2c3-3.1,4.8-7.4,4.8-12c0-9.7-7.9-17.5-17.5-17.5
	c-9.7,0-17.5,7.9-17.5,17.5c0,3.4,1,6.5,2.6,9.2c-11.2-0.8-22.4-1.2-33.7-1.3c-4.3,0-8.6,0.2-12.8,0.2c-4.3,0.1-8.5,0.3-12.8,0.5
	c-4,0.2-8.1,0.5-12.1,0.8c1.8-2.7,2.8-6,2.8-9.5c0-9.7-7.9-17.5-17.5-17.5c-9.7,0-17.5,7.9-17.5,17.5c0,4.9,2,9.3,5.3,12.5
	l-11.9,1.8c-4.2,0.7-8.4,1.5-12.6,2.2c-4.2,0.8-8.3,1.8-12.5,2.7c-33.3,7.5-65.7,18.7-95.7,34.4H0.3c-0.3,0.1-0.4,0.5-0.3,0.8
	s0.5,0.5,0.8,0.4c15.8-5.6,31.8-10.7,48-14.9c16.2-4.3,32.6-7.9,49.1-10.8c33-5.9,66.5-8.6,100-8.6s67,2.8,100,8.6
	c33,5.8,65.5,14.5,97,25.7c0.3,0.1,0.6,0,0.8-0.3C395.7,168.8,395.6,168.4,395.3,168.2z M348.1,116.9h-10.5V89H355v2.2h-15v9.4h8.1
	c5.3,0,8.4,3.8,8.4,8.2C356.5,113.2,353.4,116.9,348.1,116.9z M347.8,114.7c3.7,0,6.2-2.5,6.2-6s-2.5-6-6.2-6H340v12H347.8z
	 M379.7,107.5h-16.9c0.2,4.4,3.1,8,7.9,8c2.5,0,4.9-1,6.6-2.8l1.1,1.4c-2,2.1-4.6,3.3-7.9,3.3c-5.9,0-10.1-4.4-10.1-10.6
	c0-5.9,4.1-10.6,9.7-10.6c6.1,0,9.5,4.9,9.5,10.7h0.1V107.5z M377.4,105.8c-0.1-3.4-2.3-7.7-7.4-7.7c-4.7,0-7.1,4.2-7.3,7.7H377.4z
	 M382.9,98.6h5.9v18.3h2.2V98.6h6v-1.9h-14.1V98.6z M419.8,106.8c0,5.9-3.7,10.6-9.7,10.6c-5.9,0-9.7-4.7-9.7-10.6
	c0-5.9,3.8-10.6,9.7-10.6C416,96.2,419.8,100.9,419.8,106.8z M417.5,106.8c0-4.5-2.6-8.6-7.4-8.6c-4.7,0-7.4,4.1-7.4,8.6
	c0,4.6,2.7,8.7,7.4,8.7C414.8,115.5,417.5,111.3,417.5,106.8z M439.1,105.5h-11.5v-8.8h-2.2v20.2h2.2v-9.5h11.5v9.5h2.1V96.7h-2.1
	V105.5z M449.2,113.7c-1,0-1.8,0.8-1.8,1.8s0.8,1.9,1.8,1.9s1.9-0.9,1.9-1.9S450.2,113.7,449.2,113.7z M490.6,89h-2.4v25.7h-17.7V89
	h-2.4v27.9h22.6v5.2h2.4v-7.4h-2.5V89z M516.2,106.9v0.6h-16.9c0.2,4.4,3.1,8,7.9,8c2.5,0,4.9-1,6.6-2.8l1.1,1.4
	c-2,2.1-4.6,3.3-7.9,3.3c-5.9,0-10.1-4.4-10.1-10.6c0-5.9,4.1-10.6,9.7-10.6C512.8,96.2,516.1,101.1,516.2,106.9z M513.9,105.8
	c-0.1-3.4-2.3-7.7-7.4-7.7c-4.7,0-7.1,4.2-7.3,7.7H513.9z M531.3,113.1l-6.6-16.4h-2.9v20.2h2.1V99.7l7,17.2h0.8l6.9-17.2v17.2h2.2
	V96.7h-3L531.3,113.1z M565.8,106.9v0.6h-16.9c0.2,4.4,3.1,8,7.9,8c2.5,0,4.9-1,6.6-2.8l1.1,1.4c-2,2.1-4.6,3.3-7.9,3.3
	c-5.9,0-10.1-4.4-10.1-10.6c0-5.9,4.1-10.6,9.7-10.6C562.3,96.2,565.7,101.1,565.8,106.9z M563.5,105.8c-0.1-3.4-2.3-7.7-7.4-7.7
	c-4.7,0-7.1,4.2-7.3,7.7H563.5z M585,105.5h-11.5v-8.8h-2.2v20.2h2.2v-9.5H585v9.5h2.2V96.7H585V105.5z M591.7,98.6h5.9v18.3h2.2
	V98.6h6v-1.9h-14.1V98.6z M611.5,113.7c-1,0-1.8,0.8-1.8,1.8s0.8,1.9,1.8,1.9s1.9-0.9,1.9-1.9S612.5,113.7,611.5,113.7z M643.5,90.7
	c3.3,0,6.4,1.6,8.2,4.1l2-1.3c-2.4-3-5.7-4.9-10.2-4.9c-7.9,0-14.1,5.9-14.1,14.4s6.2,14.4,14.1,14.4c4.4,0,7.7-1.9,10.2-5l-2-1.3
	c-1.8,2.4-4.8,4.1-8.2,4.1c-6.6,0-11.6-5.1-11.6-12.3C631.8,95.7,636.9,90.7,643.5,90.7z M656.2,98.6h5.9v18.3h2.2V98.6h6v-1.9
	h-14.1V98.6z M693,106.8c0,6.4-3.6,10.6-9,10.6c-2.8,0-5.4-1.5-7-3.8v11h-2.2V96.7h2.2v3.2c1.4-2.1,4-3.7,7-3.7
	C689.4,96.2,693,100.3,693,106.8z M690.7,106.8c0-4.9-2.6-8.6-7.1-8.6c-2.9,0-5.5,1.7-6.7,3.6v10c1.2,1.9,3.9,3.7,6.7,3.7
	C688.1,115.5,690.7,111.7,690.7,106.8z M716.7,106.8c0,5.9-3.7,10.6-9.7,10.6c-5.9,0-9.7-4.7-9.7-10.6c0-5.9,3.8-10.6,9.7-10.6
	C713,96.2,716.7,100.9,716.7,106.8z M714.4,106.8c0-4.5-2.6-8.6-7.4-8.6c-4.7,0-7.4,4.1-7.4,8.6c0,4.6,2.7,8.7,7.4,8.7
	C711.8,115.5,714.4,111.3,714.4,106.8z M724.6,113.5V96.7h-2.2v20.2h2.1L736,99.8v17.1h2.2V96.7h-2.1L724.6,113.5z M730.3,92.7
	c-2.6,0-4.8-1.2-6.2-3.1l-1.2,1c1.7,2.3,4.4,3.7,7.4,3.7s5.6-1.4,7.3-3.7l-1.2-1C735,91.5,732.9,92.7,730.3,92.7z M754.5,113.1
	l-6.6-16.4H745v20.2h2.2V99.7l7,17.2h0.8l6.9-17.2v17.2h2.2V96.7h-3L754.5,113.1z M785.8,102.6v14.2h-2.2v-2.4
	c-1.8,2-4.1,2.9-6.9,2.9c-3.5,0-7.1-2.3-7.1-6.7c0-4.4,3.6-6.7,7.1-6.7c2.8,0,5.1,0.9,6.9,2.9v-4.1c0-3-2.4-4.6-5.4-4.6
	c-2.5,0-4.5,0.9-6.3,3l-1.2-1.5c2.1-2.3,4.5-3.4,7.8-3.4C782.6,96.2,785.9,98.2,785.8,102.6z M783.7,108.5c-1.4-1.8-3.7-2.8-6.1-2.8
	c-3.3,0-5.5,2.1-5.5,5c0,2.9,2.2,5,5.5,5c2.4,0,4.7-1,6.1-2.8V108.5z M790.4,98.6h5.9v18.3h2.2V98.6h6v-1.9h-14.1V98.6z"/>
</svg>
