<?xml version="1.0" encoding="utf-8"?>
<!-- Generator: Adobe Illustrator 21.0.0, SVG Export Plug-In . SVG Version: 6.00 Build 0)  -->
<svg version="1.1" id="Слой_1" xmlns="http://www.w3.org/2000/svg" xmlns:xlink="http://www.w3.org/1999/xlink" x="0px" y="0px"
	 viewBox="0 0 18 12" style="enable-background:new 0 0 18 12;" xml:space="preserve">
<style type="text/css">
	.st0{fill:#B2B2B2;}
</style>
<g id="Rounded">
	<path class="st0" d="M1,12h16c0.5,0,1-0.5,1-1l0,0c0-0.5-0.5-1-1-1H1c-0.5,0-1,0.5-1,1l0,0C0,11.5,0.5,12,1,12z M1,7h16
		c0.5,0,1-0.4,1-1l0,0c0-0.6-0.5-1-1-1H1C0.5,5,0,5.4,0,6l0,0C0,6.6,0.5,7,1,7z M0,1L0,1c0,0.6,0.5,1,1,1h16c0.5,0,1-0.4,1-1l0,0
		c0-0.6-0.5-1-1-1H1C0.5,0,0,0.4,0,1z"/>
</g>
</svg>
